<svg width="28" height="26" viewBox="0 0 28 26" fill="none" xmlns="http://www.w3.org/2000/svg">
<path d="M12.5412 16.3905C12.5503 16.3996 12.5958 16.4542 12.5989 16.4542C12.5867 16.4542 12.5382 16.3602 12.5655 16.4178C12.5776 16.4421 12.5928 16.4694 12.608 16.4906C12.6474 16.5513 12.5807 16.436 12.5898 16.4421C12.614 16.4512 12.6201 16.5543 12.6292 16.5816C12.6504 16.6423 12.6201 16.527 12.6231 16.521C12.614 16.5422 12.6262 16.5968 12.6262 16.6241C12.6231 16.7728 12.6565 16.5452 12.6262 16.6454C12.6171 16.6727 12.611 16.7 12.6049 16.7242C12.5989 16.7485 12.5655 16.791 12.6049 16.7303C12.6656 16.6363 12.5503 16.7971 12.5564 16.8062C12.5503 16.7971 12.6565 16.6969 12.5716 16.7849C12.5625 16.794 12.5503 16.8062 12.5412 16.8183C12.4472 16.9154 12.3501 17.0094 12.253 17.1065C11.8829 17.4767 11.5127 17.8468 11.1396 18.22C11.0941 18.2655 11.0485 18.311 11.003 18.3565C10.9879 18.3716 10.9727 18.3868 10.9575 18.399C10.8786 18.4748 11.0364 18.3565 10.9424 18.4081C10.9454 18.4081 10.8726 18.4505 10.8695 18.4475C10.8756 18.4505 10.9939 18.4081 10.8999 18.4323C10.8756 18.4384 10.8453 18.4445 10.821 18.4536C10.7573 18.4748 10.7755 18.4263 10.8604 18.4505C10.8301 18.4414 10.7725 18.4536 10.7391 18.4536C10.6177 18.4536 10.7816 18.4505 10.7785 18.4627C10.7785 18.4657 10.6905 18.4414 10.6996 18.4445C10.6784 18.4384 10.6602 18.4293 10.642 18.4263C10.5752 18.4081 10.7603 18.496 10.6541 18.4293C10.6359 18.4172 10.6177 18.405 10.5995 18.3959C10.5419 18.3686 10.6359 18.4172 10.6359 18.4293C10.6359 18.4263 10.5783 18.3777 10.5722 18.3716C10.5692 18.3686 10.5661 18.3656 10.5631 18.3625C10.4296 18.2321 10.2992 18.0986 10.1657 17.9651C9.50121 17.3006 8.83681 16.6362 8.17235 15.9718C7.37747 15.1769 6.57953 14.379 5.78465 13.5841C5.33866 13.1381 4.89268 12.6982 4.44974 12.2492C4.43761 12.237 4.42547 12.2249 4.41637 12.2128C4.41334 12.2067 4.37693 12.1642 4.37389 12.1642C4.38906 12.1612 4.44671 12.2825 4.39513 12.1824C4.38603 12.1642 4.37693 12.143 4.36479 12.1278C4.31928 12.0611 4.39513 12.234 4.37693 12.1582C4.36783 12.1278 4.35872 12.0429 4.34052 12.0186C4.34355 12.0247 4.34659 12.143 4.34962 12.0793V11.9761C4.34659 11.873 4.31928 12.1005 4.35569 11.9549C4.36176 11.9336 4.36783 11.9154 4.37389 11.8942C4.39513 11.8123 4.39816 11.9063 4.35872 11.9245C4.37086 11.9185 4.44671 11.7546 4.4012 11.8426C4.36479 11.9094 4.4194 11.8244 4.44064 11.8032C4.47098 11.7728 4.50132 11.7425 4.52862 11.7152C4.88966 11.3542 5.25072 10.9931 5.61171 10.6321L5.97579 10.268C5.99096 10.2529 6.00612 10.2377 6.02129 10.2256C6.08804 10.1619 6.02129 10.2529 6.00006 10.2407C6.00309 10.2438 6.0486 10.2104 6.05467 10.2074C6.06377 10.2013 6.10625 10.1861 6.10928 10.177C6.03343 10.2074 6.01826 10.2134 6.06074 10.1983C6.07287 10.1922 6.08804 10.1892 6.10018 10.1861C6.12748 10.177 6.15479 10.174 6.17906 10.1649C6.24581 10.1436 6.11838 10.1801 6.11838 10.171C6.11838 10.1649 6.24277 10.171 6.26097 10.171C6.32468 10.1679 6.20636 10.1649 6.20029 10.1619C6.21243 10.171 6.26097 10.174 6.27918 10.1801C6.29738 10.1861 6.34592 10.2074 6.35806 10.2043C6.32772 10.2104 6.2549 10.1497 6.32772 10.1952C6.33682 10.2013 6.40053 10.2407 6.40053 10.2407C6.39447 10.2438 6.31559 10.1618 6.36413 10.2104C6.3793 10.2256 6.40053 10.2438 6.41267 10.2559C6.4157 10.2589 6.41874 10.262 6.42177 10.265C6.43694 10.2802 6.45211 10.2953 6.46728 10.3105C6.53403 10.3773 6.60077 10.444 6.66752 10.5108C7.28643 11.1297 7.90235 11.7456 8.52125 12.3645C9.32829 13.1715 10.1323 13.9755 10.9393 14.7825C11.452 15.2953 11.9648 15.808 12.4775 16.3208C12.4897 16.339 12.517 16.3632 12.5412 16.3905C12.7658 16.6151 13.1784 16.6333 13.3999 16.3905C13.6214 16.1478 13.6396 15.7716 13.3999 15.5319C13.0055 15.1375 12.611 14.7431 12.2136 14.3456C11.3944 13.5265 10.5722 12.7043 9.75305 11.8851C9.05525 11.1873 8.36045 10.4925 7.66265 9.79469C7.52916 9.6612 7.39566 9.52467 7.26217 9.39421C6.94664 9.08778 6.50673 8.90878 6.06679 8.95429C5.6663 8.99676 5.33559 9.17273 5.05343 9.45489C4.68329 9.82503 4.31314 10.1952 3.94604 10.5623C3.82468 10.6836 3.70029 10.805 3.57893 10.9294C3.21183 11.3086 3.06316 11.8153 3.16328 12.3341C3.23913 12.7285 3.49702 13.0046 3.76705 13.2746L9.66488 19.1724C10.2595 19.7671 11.1606 19.8186 11.8038 19.2634C12.1285 18.9813 12.4197 18.6506 12.7231 18.3472C13.0963 17.974 13.5635 17.6069 13.7576 17.1002C13.967 16.5571 13.794 15.9382 13.4027 15.5286C13.1842 15.2981 12.7625 15.292 12.544 15.5286C12.3135 15.7774 12.3074 16.1445 12.541 16.3903L12.5412 16.3905Z" fill="#7CC0A0"/>
<path d="M21.4885 7.44325C21.4976 7.45235 21.5431 7.50696 21.5461 7.50696C21.534 7.50696 21.4854 7.41291 21.5128 7.47055C21.5249 7.49482 21.5401 7.52213 21.5552 7.54337C21.5947 7.60405 21.5279 7.48875 21.537 7.49482C21.5613 7.50392 21.5674 7.60708 21.5765 7.63438C21.5977 7.69506 21.5674 7.57977 21.5704 7.5737C21.5613 7.59494 21.5734 7.64955 21.5734 7.67686C21.5704 7.82552 21.6038 7.59797 21.5734 7.69809C21.5643 7.7254 21.5583 7.7527 21.5522 7.77698C21.5461 7.80125 21.5128 7.84372 21.5522 7.78304C21.6129 7.68899 21.4976 7.84979 21.5037 7.85889C21.4976 7.84979 21.6038 7.74967 21.5188 7.83766C21.5097 7.84676 21.4976 7.85889 21.4885 7.87103C21.3944 7.96812 21.2973 8.06217 21.2003 8.15925C20.8301 8.52939 20.46 8.89955 20.0868 9.27269C20.0413 9.3182 19.9958 9.36371 19.9503 9.40921C19.9351 9.42439 19.92 9.43955 19.9048 9.45169C19.8259 9.52754 19.9837 9.40922 19.8896 9.46079C19.8927 9.46079 19.8198 9.50327 19.8168 9.50023C19.8229 9.50327 19.9412 9.46079 19.8471 9.48506C19.8229 9.49113 19.7925 9.4972 19.7683 9.5063C19.7046 9.52754 19.7228 9.479 19.8077 9.50327C19.7774 9.49417 19.7197 9.5063 19.6863 9.5063C19.565 9.5063 19.7288 9.50327 19.7258 9.5154C19.7258 9.51844 19.6378 9.49417 19.6469 9.4972C19.6257 9.49113 19.6075 9.48203 19.5893 9.479C19.5225 9.46079 19.7076 9.54878 19.6014 9.48203C19.5832 9.46989 19.565 9.45776 19.5468 9.44866C19.4891 9.42135 19.5832 9.46989 19.5832 9.48203C19.5832 9.479 19.5255 9.43045 19.5195 9.42438C19.5164 9.42135 19.5134 9.41831 19.5104 9.41528C19.3769 9.28482 19.2464 9.15133 19.1129 9.01783C18.4485 8.35338 17.7841 7.68898 17.1196 7.02452C16.3247 6.22963 15.5268 5.4317 14.7319 4.63681C14.2859 4.19082 13.8399 3.75089 13.397 3.30191C13.3849 3.28977 13.3727 3.27764 13.3636 3.2655C13.3606 3.25943 13.3242 3.21696 13.3212 3.21696C13.3363 3.21393 13.394 3.33528 13.3424 3.23516C13.3333 3.21696 13.3242 3.19572 13.3121 3.18055C13.2665 3.11381 13.3424 3.28674 13.3242 3.21089C13.3151 3.18055 13.306 3.0956 13.2878 3.07133C13.2908 3.0774 13.2939 3.19572 13.2969 3.13201V3.02886C13.2939 2.9257 13.2665 3.15325 13.303 3.00762C13.309 2.98638 13.3151 2.96818 13.3212 2.94694C13.3424 2.86502 13.3454 2.95907 13.306 2.97728C13.3181 2.97121 13.394 2.80738 13.3485 2.89536C13.3121 2.96211 13.3667 2.87716 13.3879 2.85592C13.4182 2.82558 13.4486 2.79524 13.4759 2.76794C13.8369 2.4069 14.198 2.04584 14.559 1.68485L14.923 1.32077C14.9382 1.3056 14.9534 1.29043 14.9686 1.2783C15.0353 1.21459 14.9686 1.3056 14.9473 1.29347C14.9504 1.2965 14.9959 1.26313 15.0019 1.26009C15.011 1.25403 15.0535 1.23886 15.0565 1.22976C14.9807 1.26009 14.9655 1.26616 15.008 1.25099C15.0201 1.24492 15.0353 1.24189 15.0474 1.23886C15.0747 1.22976 15.1021 1.22672 15.1263 1.21762C15.1931 1.19638 15.0656 1.23279 15.0656 1.22369C15.0656 1.21762 15.19 1.22369 15.2082 1.22369C15.272 1.22065 15.1536 1.21762 15.1476 1.21459C15.1597 1.22369 15.2082 1.22672 15.2264 1.23279C15.2446 1.23886 15.2932 1.26009 15.3053 1.25706C15.275 1.26313 15.2022 1.20245 15.275 1.24796C15.2841 1.25403 15.3478 1.29347 15.3478 1.29347C15.3417 1.2965 15.2629 1.21458 15.3114 1.26313C15.3266 1.2783 15.3478 1.2965 15.3599 1.30864C15.363 1.31167 15.366 1.31471 15.369 1.31774C15.3842 1.33291 15.3994 1.34808 15.4145 1.36325C15.4813 1.42999 15.548 1.49674 15.6148 1.56349C16.2337 2.1824 16.8496 2.79831 17.4685 3.41722C18.2756 4.22426 19.0795 5.02824 19.8866 5.83527C20.3993 6.34801 20.912 6.86072 21.4248 7.3735C21.4369 7.39171 21.4612 7.41598 21.4885 7.44328C21.713 7.6678 22.1256 7.686 22.3471 7.44328C22.5686 7.20057 22.5868 6.82437 22.3471 6.58465C21.9527 6.19024 21.5583 5.79582 21.1609 5.39837C20.3417 4.57919 19.5195 3.75701 18.7003 2.93783C18.0025 2.24003 17.3077 1.54523 16.6099 0.847427C16.4764 0.713937 16.3429 0.577406 16.2094 0.446945C15.8939 0.140519 15.454 -0.0384855 15.0141 0.0070229C14.6136 0.0494977 14.2829 0.225466 14.0007 0.50762C13.6306 0.877762 13.2604 1.24791 12.8933 1.61501C12.7719 1.73637 12.6476 1.85773 12.5262 1.98212C12.1591 2.36136 12.0104 2.86804 12.1105 3.38681C12.1864 3.78123 12.4443 4.05732 12.7143 4.32733C12.9601 4.57308 13.2088 4.82186 13.4546 5.06762C14.2525 5.86556 15.0505 6.66349 15.8454 7.45838C16.5887 8.20167 17.332 8.94501 18.0753 9.6883C18.2543 9.86731 18.4333 10.0463 18.6123 10.2253C19.207 10.82 20.108 10.8715 20.7512 10.3163C21.0759 10.0342 21.3672 9.70347 21.6705 9.40006C22.0437 9.02688 22.5109 8.65977 22.7051 8.15309C22.9144 7.61001 22.7415 6.99111 22.3501 6.58151C22.1316 6.35094 21.7099 6.34487 21.4915 6.58151C21.2609 6.83333 21.2548 7.19743 21.4884 7.44314L21.4885 7.44325Z" fill="#7CC0A0"/>
<path d="M17.9888 8.7465C17.2181 9.51714 16.4505 10.2847 15.68 11.0553C14.9063 11.8289 14.1326 12.6026 13.362 13.3732C12.8675 13.8678 12.3699 14.3653 11.8754 14.8599H12.734L7.92522 10.0511V10.9097C8.61392 10.221 9.30262 9.53228 9.99133 8.84358C11.0896 7.74529 12.1879 6.647 13.2832 5.55176C13.535 5.29994 13.7868 5.04813 14.0386 4.79632H13.18L17.9888 9.60512C18.2133 9.82964 18.6259 9.84784 18.8474 9.60512C19.0689 9.36241 19.0871 8.98622 18.8474 8.7465C18.3074 8.20645 17.7673 7.6664 17.2242 7.12333C16.3626 6.26171 15.501 5.40008 14.6363 4.53541C14.4361 4.33516 14.2389 4.13796 14.0386 3.93774C13.8081 3.70717 13.4136 3.70413 13.18 3.93774C12.4913 4.62644 11.8026 5.31514 11.1139 6.00384C10.0156 7.10214 8.91733 8.20043 7.82209 9.29567C7.57027 9.54749 7.31846 9.7993 7.06665 10.0511C6.83607 10.2817 6.83304 10.6761 7.06665 10.9097C7.60669 11.4498 8.14675 11.9898 8.68982 12.5329C9.55144 13.3945 10.4131 14.2562 11.2777 15.1208C11.478 15.3211 11.6752 15.5183 11.8754 15.7185C12.106 15.9491 12.5004 15.9521 12.734 15.7185L14.9549 13.4977C15.774 12.6785 16.5932 11.8594 17.4154 11.0371C17.8948 10.5578 18.3711 10.0814 18.8504 9.60207C19.075 9.37756 19.0932 8.96497 18.8504 8.74344C18.6047 8.525 18.2285 8.5068 17.9888 8.74648L17.9888 8.7465Z" fill="#7CC0A0"/>
<path d="M25.752 22.8642C25.7247 22.8884 25.6974 22.9127 25.6701 22.94C25.6094 22.9976 25.7611 22.8854 25.6883 22.9248C25.6579 22.943 25.5427 22.9885 25.5214 23.0189C25.5518 22.9734 25.6215 22.9825 25.5487 23.0037C25.5214 23.0128 25.4971 23.0219 25.4698 23.028C25.4365 23.0371 25.4031 23.0432 25.3667 23.0523C25.3212 23.0614 25.3394 23.0583 25.4243 23.0462C25.4031 23.0492 25.3819 23.0492 25.3606 23.0492C25.3424 23.0492 25.1786 23.0583 25.1725 23.0462C25.1695 23.0401 25.3303 23.0796 25.2089 23.0492C25.1816 23.0432 25.1543 23.0371 25.127 23.031C25.0997 23.025 25.0724 23.0128 25.0481 23.0067C24.9177 22.9703 25.13 23.0553 25.0572 23.0128C25.033 22.9976 25.0056 22.9885 24.9814 22.9734C24.9662 22.9643 24.8388 22.8915 24.9177 22.937C24.9874 22.9794 24.8691 22.8915 24.8449 22.8672C24.8418 22.8642 24.8357 22.8581 24.8327 22.8551C24.8145 22.8368 24.7993 22.8217 24.7811 22.8035L24.235 22.2574C23.4674 21.4898 22.6998 20.7222 21.9293 19.9516C20.919 18.9322 19.9026 17.9128 18.8832 16.8964L16.1587 14.172C15.7097 13.723 15.2759 13.2557 14.8086 12.8219L14.7904 12.8037V13.6623C15.376 13.0767 15.9646 12.4882 16.5501 11.9026H15.6915C16.0617 12.2727 16.4318 12.6429 16.802 13.013C17.6727 13.8838 18.5435 14.7545 19.4172 15.6283C20.4397 16.6508 21.4651 17.6762 22.4876 18.6987C23.3037 19.5148 24.1198 20.3309 24.936 21.1471C25.1575 21.3686 25.3789 21.59 25.6034 21.8145C25.6489 21.86 25.6945 21.9055 25.74 21.9511C25.743 21.9541 25.746 21.9571 25.7491 21.9602L25.7521 21.9632C25.7612 21.9753 25.7339 21.942 25.7824 21.9966C25.7976 22.0117 25.8128 22.0299 25.8249 22.0451C25.8522 22.0785 25.8431 22.0663 25.7976 22.0087C25.7946 22.0148 25.8765 22.1422 25.8856 22.1543C25.9554 22.2696 25.8583 22.0633 25.8826 22.1452C25.8917 22.1786 25.9038 22.212 25.9159 22.2453C25.922 22.2727 25.9281 22.3 25.9341 22.3273C25.9493 22.391 25.9129 22.3758 25.9311 22.2909C25.919 22.3515 25.9372 22.4365 25.9341 22.4972C25.9311 22.6216 25.9372 22.4577 25.9402 22.4608C25.9463 22.4668 25.922 22.5518 25.919 22.5639C25.9129 22.5912 25.9038 22.6185 25.8947 22.6458C25.8674 22.7338 25.9129 22.7035 25.9008 22.6367C25.9068 22.6762 25.837 22.752 25.8188 22.7854C25.7673 22.8795 25.831 22.7824 25.837 22.7672C25.8249 22.8006 25.7794 22.837 25.7521 22.8643C25.5306 23.0918 25.5063 23.4984 25.7521 23.7229C25.9918 23.9414 26.3741 23.9656 26.6107 23.7229C27.3328 22.9766 27.3085 21.8085 26.5804 21.0773C26.4196 20.9165 26.2588 20.7557 26.098 20.5949L20.7461 15.243C19.8177 14.3147 18.8893 13.3862 17.964 12.4609C17.4998 11.9967 17.0447 11.5204 16.5684 11.0653C16.5623 11.0593 16.5563 11.0532 16.5502 11.0471C16.3196 10.8165 15.9252 10.8135 15.6916 11.0471C15.106 11.6327 14.5175 12.2212 13.9319 12.8068C13.7013 13.0374 13.6983 13.4318 13.9319 13.6654C14.3142 14.0477 14.6964 14.43 15.0787 14.8123C15.9707 15.7042 16.8597 16.5932 17.7516 17.4852C18.7923 18.5258 19.8299 19.5634 20.8705 20.6041C21.6776 21.4111 22.4816 22.2151 23.2886 23.0221C23.4919 23.2254 23.6982 23.4317 23.9015 23.635C23.9318 23.6653 23.9621 23.6987 23.9955 23.7291C24.4627 24.1842 25.1211 24.3662 25.7552 24.2145C26.0798 24.1386 26.3741 23.9596 26.6138 23.7291C26.8414 23.5076 26.8535 23.0889 26.6138 22.8704C26.365 22.6399 25.9979 22.6277 25.7522 22.8644L25.752 22.8642Z" fill="#7CC0A0"/>
<path d="M14.9293 24.7824H13.1545H9.10117H4.58062H1.44657H1.09463C1.04002 24.7824 0.888323 24.7581 1.05823 24.7945C1.00968 24.7854 0.991482 24.7521 1.09767 24.8127C1.20386 24.8734 1.16745 24.8734 1.13408 24.837C1.15228 24.8582 1.16745 24.8795 1.18565 24.9007C1.21903 24.9887 1.22509 25.0039 1.20386 24.9402C1.20386 24.9432 1.21599 25.0221 1.21599 25.0221C1.22509 25.0039 1.21599 24.9584 1.21599 24.9371V24.5033V23.5112C1.21599 23.499 1.22206 23.4566 1.21599 23.4475C1.22509 23.4596 1.17958 23.5961 1.21296 23.493C1.19475 23.5537 1.17352 23.587 1.13104 23.6325C1.20385 23.5536 1.07643 23.6568 1.05519 23.672C1.00361 23.6902 1.00361 23.6932 1.05519 23.678C0.970243 23.6871 0.942936 23.6902 0.973272 23.6902C0.97934 23.6932 1.00058 23.6902 1.00664 23.6902C1.08856 23.6962 1.17048 23.6902 1.25239 23.6902H2.36583H6.23712H10.8153H14.2073C14.4348 23.6902 14.6715 23.7084 14.899 23.6902C14.9385 23.6871 14.9809 23.7053 14.8444 23.678C14.9506 23.6993 14.7989 23.6447 14.7746 23.6325C14.7655 23.6234 14.7534 23.6143 14.7443 23.6083C14.7898 23.6538 14.7807 23.6416 14.72 23.5719C14.7109 23.5567 14.6775 23.4353 14.7018 23.5324C14.6988 23.5051 14.6927 23.4778 14.6897 23.4475C14.6806 23.4596 14.6897 23.5172 14.6897 23.5324V24.5609V24.9523C14.6897 24.9644 14.6806 25.013 14.6897 25.0221C14.6866 25.016 14.714 24.8946 14.6988 24.9584C14.6836 25.0099 14.7625 24.8491 14.7746 24.837C14.7079 24.9098 14.7959 24.8218 14.811 24.8127C14.8353 24.8036 14.8626 24.7915 14.8869 24.7824C14.8171 24.8036 14.8323 24.8006 14.9294 24.7824C14.6138 24.8006 14.3074 25.0494 14.3225 25.3892C14.3377 25.7047 14.5895 26.0142 14.9294 25.996C15.4482 25.9687 15.8668 25.5955 15.8972 25.0646C15.9032 24.9736 15.9002 24.8826 15.9002 24.7885V23.7054C15.9002 23.6205 15.9032 23.5325 15.9002 23.4475C15.882 22.9287 15.4937 22.507 14.9688 22.4797C14.9142 22.4767 14.8596 22.4767 14.805 22.4767H12.1806H7.65094H3.26083C2.51143 22.4767 1.75904 22.4676 1.0066 22.4767C0.466557 22.4828 0.0296929 22.8802 0.00539367 23.4263C-0.00674208 23.6963 0.00539367 23.9664 0.00539367 24.2364C0.00539367 24.5064 -0.00674208 24.7764 0.00539367 25.0465C0.0296652 25.5926 0.466552 25.99 1.0066 25.9961C1.75599 26.0052 2.50838 25.9961 3.26083 25.9961H7.65094H12.1806H14.805H14.9294C15.2479 25.9961 15.5513 25.717 15.5362 25.3893C15.521 25.0616 15.2692 24.7825 14.9294 24.7825L14.9293 24.7824Z" fill="#7CC0A0"/>
</svg>
