<svg width="95" height="95" viewBox="0 0 95 95" fill="none" xmlns="http://www.w3.org/2000/svg">
<circle cx="47.5" cy="47.5" r="47.5" fill="white"/>
<path fill-rule="evenodd" clip-rule="evenodd" d="M64.9957 54.7575H41.0884V41.4138H37.4054V56.6003C37.4053 56.8422 37.4528 57.0818 37.5452 57.3054C37.6377 57.5289 37.7733 57.7321 37.9443 57.9032C38.1153 58.0743 38.3184 58.2101 38.5419 58.3027C38.7654 58.3953 39.005 58.443 39.2469 58.443H60.1902L55.8649 62.3354H32.6664V40.253H56.5762C57.0311 40.2531 57.4698 40.0843 57.8073 39.7792L66.2357 32.2013C66.5134 31.9516 66.7087 31.6234 66.7956 31.2602C66.8826 30.897 66.8572 30.516 66.7227 30.1676C66.5883 29.8191 66.3511 29.5198 66.0427 29.3092C65.7343 29.0986 65.3691 28.9867 64.9957 28.9883H39.2469C38.7584 28.9886 38.29 29.1829 37.9447 29.5285C37.5994 29.874 37.4054 30.3425 37.4054 30.8311V35.4041H41.0884V32.6738H60.1953L55.87 36.5675H41.0884H37.4054H30.8249C30.5829 36.5676 30.3433 36.6155 30.1198 36.7082C29.8963 36.801 29.6932 36.9369 29.5222 37.1081C29.3512 37.2793 29.2156 37.4826 29.1232 37.7062C29.0307 37.9299 28.9832 38.1695 28.9834 38.4115V64.1794C28.9834 64.668 29.1774 65.1365 29.5227 65.482C29.868 65.8276 30.3364 66.0219 30.8249 66.0222H56.5762C57.0308 66.0218 57.4692 65.8535 57.8073 65.5497L66.2357 57.9692C66.5128 57.72 66.7079 57.3927 66.7951 57.0303C66.8823 56.668 66.8577 56.2877 66.7243 55.9397C66.591 55.5917 66.3552 55.2922 66.0482 55.081C65.7412 54.8697 65.3773 54.7565 65.0046 54.7562" fill="#FF4350"/>
</svg>
