<svg width="28" height="31" viewBox="0 0 28 31" fill="none" xmlns="http://www.w3.org/2000/svg">
<path d="M20.5309 14.3965H27.0014C26.8847 13.0316 26.5562 11.6932 26.0276 10.4294C25.2469 8.55383 24.0431 6.88419 22.5102 5.55097C20.9773 4.21775 19.1568 3.25706 17.1911 2.74398V0.367188H14.9902V8.85986C16.376 9.08904 17.6553 9.74593 18.6491 10.7385C19.6445 11.7303 20.3028 13.01 20.5309 14.3965ZM17.1911 4.71543C18.9545 5.25698 20.5585 6.22175 21.8634 7.52558C23.1683 8.82941 24.1343 10.4327 24.6773 12.1956H21.7548C21.7543 12.1898 21.7525 12.1841 21.7494 12.1791C20.8853 10.124 19.2481 8.49079 17.1908 7.63163L17.1911 4.71543Z" fill="white"/>
<path d="M10.3127 2.78899C9.7814 2.93756 9.25955 3.11816 8.75004 3.32982C6.36152 4.34052 4.32344 6.03209 2.89 8.19353C1.45657 10.355 0.691233 12.8906 0.689458 15.4842C0.686897 18.3642 1.62577 21.1661 3.36306 23.4631C5.10035 25.7601 7.54082 27.4262 10.3127 28.2078V30.3509H12.5136V22.0876C10.9991 21.7721 9.63945 20.9446 8.66343 19.7442C7.68742 18.5439 7.1546 17.044 7.15461 15.497C7.1542 13.9496 7.68685 12.4494 8.6629 11.2487C9.63894 10.048 10.9988 9.2202 12.5136 8.90459V0.365234H10.3127V2.78899ZM10.3127 7.75463C8.83568 8.43754 7.58484 9.52879 6.70789 10.8996C5.83094 12.2704 5.3645 13.8634 5.36362 15.4907C5.36216 17.1199 5.82752 18.7154 6.70462 20.0883C7.58173 21.4613 8.83383 22.5542 10.3127 23.2376V26.1979C8.06945 25.4464 6.119 24.0091 4.73697 22.0889C3.35493 20.1687 2.61119 17.8628 2.61081 15.497C2.61091 13.1307 3.35466 10.8243 4.73693 8.90381C6.11921 6.98327 8.07011 5.54571 10.3139 4.79431L10.3127 7.75463Z" fill="white"/>
<path d="M25.0869 16.8711H20.4816C20.2122 18.1623 19.5696 19.346 18.6334 20.2752C17.6973 21.2044 16.5089 21.8383 15.2157 22.098H14.9902V30.3519H17.1911V28.2854C17.819 28.1234 18.4341 27.9156 19.0316 27.6637C21.199 26.7377 23.0791 25.2485 24.4767 23.3507C25.8743 21.4529 26.7386 19.2156 26.9798 16.8711H25.0869ZM17.1914 26.2852V23.3636C17.1968 23.3607 17.2051 23.3582 17.2108 23.3553C19.1688 22.5305 20.7469 21.0024 21.6344 19.072H24.5919C24.0199 20.7757 23.0503 22.3186 21.7634 23.573C20.4765 24.8273 18.9092 25.7571 17.1914 26.2852Z" fill="white"/>
</svg>
