<svg width="23" height="26" viewBox="0 0 23 26" fill="none" xmlns="http://www.w3.org/2000/svg">
<path d="M9.4707 2.99299C9.4707 1.49867 12.499 0.287109 16.2354 0.287109C19.9712 0.287109 23.0001 1.49867 23.0001 2.99299C23.0001 4.48731 19.9712 5.69887 16.2354 5.69887C12.499 5.69887 9.4707 4.48731 9.4707 2.99299ZM16.2354 19.2283C15.7717 19.2283 15.3198 19.2097 14.8825 19.1741V21.88C15.3198 21.9155 15.7717 21.9342 16.2354 21.9342C19.9712 21.9342 23.0001 20.7226 23.0001 19.2283V16.5224C23.0001 18.0167 19.9712 19.2283 16.2354 19.2283ZM16.2354 11.1106C15.7703 11.1106 15.3157 11.0917 14.8771 11.0558C14.8771 11.0744 14.8825 11.092 14.8825 11.1106V13.7623C15.3198 13.7979 15.7717 13.8165 16.2354 13.8165C19.9712 13.8165 23.0001 12.605 23.0001 11.1106V8.40475C23.0001 9.89907 19.9712 11.1106 16.2354 11.1106L16.2354 11.1106ZM16.2354 7.05181C12.499 7.05181 9.4707 5.84025 9.4707 4.34593V7.05181C9.4707 7.13329 9.48359 7.21377 9.50109 7.29327C11.7162 7.69041 13.4821 8.55285 14.3294 9.64704C14.9345 9.71817 15.5728 9.7577 16.2354 9.7577C19.9712 9.7577 23.0001 8.54614 23.0001 7.05182V4.34594C23.0001 5.84026 19.9712 7.05182 16.2354 7.05182L16.2354 7.05181ZM16.2354 15.1695C15.7717 15.1695 15.3198 15.1508 14.8825 15.1153V17.8212C15.3198 17.8567 15.7717 17.8753 16.2354 17.8753C19.9712 17.8753 23.0001 16.6638 23.0001 15.1695V12.4636C23.0001 13.9579 19.9712 15.1695 16.2354 15.1695Z" fill="#535356"/>
<path d="M13.5294 11.1102C13.5294 12.6045 10.5005 13.8161 6.7647 13.8161C3.02861 13.8161 0 12.6045 0 11.1102C0 9.61586 3.02861 8.4043 6.7647 8.4043C10.5005 8.4043 13.5294 9.61586 13.5294 11.1102ZM6.7647 15.169C3.02861 15.169 0 13.9574 0 12.4631V15.169C0 16.6633 3.02861 17.8749 6.7647 17.8749C10.5005 17.8749 13.5294 16.6633 13.5294 15.169V12.4631C13.5294 13.9574 10.5005 15.169 6.7647 15.169ZM6.7647 19.2278C3.02861 19.2278 0 18.0163 0 16.5219V19.2278C0 20.7221 3.02861 21.9337 6.7647 21.9337C10.5005 21.9337 13.5294 20.7221 13.5294 19.2278V16.5219C13.5294 18.0163 10.5005 19.2278 6.7647 19.2278ZM6.7647 23.2866C3.02861 23.2866 0 22.0751 0 20.5808V23.2866C0 24.781 3.02861 25.9925 6.7647 25.9925C10.5005 25.9925 13.5294 24.781 13.5294 23.2866V20.5808C13.5294 22.0751 10.5005 23.2866 6.7647 23.2866Z" fill="#535356"/>
</svg>
