<svg width="64" height="23" viewBox="0 0 64 23" fill="none" xmlns="http://www.w3.org/2000/svg">
<path d="M2.46154 20.7065C1.70673 20.1316 1.09351 19.3856 0.6703 18.5276C0.24709 17.6699 0.0255096 16.7233 0.0230659 15.7631C-0.0250602 13.0654 0.0165826 10.366 0.0195749 7.66703C0.021071 6.39364 0.675635 5.50796 1.64813 4.82731C3.7178 3.37709 7.34533 3.39386 9.40303 4.855C10.493 5.62839 11.076 6.6721 11.0398 8.05804C11.0201 8.81821 11.0363 9.5794 11.0363 10.3723H5.9215V6.9376H3.86492V7.55346C3.86492 9.92696 3.86492 12.3007 3.86492 14.6745C3.86492 17.7398 5.29387 19.8066 8.12632 20.8148C10.0234 21.4921 12.0759 21.5757 14.0199 21.0549C14.1825 21.0132 14.3443 20.968 14.5076 20.9306C14.5383 20.9238 14.5755 20.9471 14.6652 20.972C13.8708 21.7335 12.9005 22.2777 11.8445 22.5544C10.8396 22.8435 9.80126 22.9934 8.7572 23C6.51198 23 4.4059 22.249 2.46154 20.7065ZM7.52013 18.1237C7.00496 17.785 6.58579 17.3147 6.30451 16.7596C6.02324 16.2044 5.88983 15.584 5.91701 14.96C5.93521 14.1978 5.9205 13.4356 5.9205 12.6328H11.0254V16.0596H13.0913V15.4631C13.0913 13.051 13.0471 10.6381 13.1028 8.2275C13.1696 5.37127 11.7904 3.52343 9.35965 2.41367C7.27502 1.46116 5.09837 1.40121 2.89592 1.95634C2.71862 2.00106 2.54083 2.04222 2.19921 2.12454C2.92128 1.39424 3.80839 0.855924 4.78268 0.556937C8.29913 -0.554864 11.5575 -0.0139536 14.4847 2.28663C15.242 2.85834 15.8579 3.60248 16.2831 4.45967C16.7082 5.3169 16.9309 6.26348 16.9334 7.22393C16.9818 9.94094 16.9386 12.6594 16.9334 15.3775C16.9311 16.6313 16.2713 17.4954 15.3215 18.1674C14.2952 18.8935 12.8811 19.2545 11.4647 19.2548C10.0145 19.255 8.5617 18.8772 7.52013 18.1237Z" fill="white"/>
<path d="M26.1433 15.3711H24.5631V12.0834H21.6022V15.3711H20.0168V7.75351H21.6022V10.7392H24.5631V7.75351H26.1433V15.3711ZM32.6121 15.3711L32.07 13.5578H29.3445L28.8024 15.3711H27.0943L29.733 7.72224H31.6713L34.3202 15.3711H32.6121ZM31.6917 12.2031L31.1496 10.4317C31.1155 10.3136 31.0696 10.1624 31.0115 9.97833C30.9569 9.79075 30.9008 9.60145 30.8427 9.41042C30.7883 9.21588 30.7439 9.04743 30.7097 8.905C30.6758 9.04743 30.628 9.22457 30.5666 9.43646C30.5088 9.64487 30.4524 9.84286 30.3978 10.0304C30.3434 10.2181 30.304 10.3517 30.2804 10.4317L29.7432 12.2031H31.6917ZM37.4447 7.75351C38.1232 7.75351 38.6822 7.83687 39.1221 8.00362C39.5652 8.17033 39.8941 8.42217 40.109 8.75911C40.3237 9.09606 40.4312 9.52157 40.4312 10.0357C40.4312 10.383 40.3664 10.6868 40.2367 10.9475C40.1073 11.2079 39.9367 11.4285 39.7255 11.6091C39.5141 11.7897 39.2857 11.9373 39.04 12.0522L41.2391 15.3711H39.4799L37.6953 12.448H36.8514V15.3711H35.2663V7.75351H37.4447ZM37.3322 9.07695H36.8514V11.135H37.3629C37.8878 11.135 38.2628 11.0466 38.488 10.8692C38.7164 10.6886 38.8306 10.4246 38.8306 10.0773C38.8306 9.71608 38.7076 9.45904 38.4623 9.3062C38.2202 9.15335 37.8436 9.07695 37.3322 9.07695ZM42.18 7.75351H44.5067C45.5024 7.75351 46.2557 7.89592 46.7671 8.18075C47.2786 8.46559 47.5342 8.9658 47.5342 9.68135C47.5342 9.96964 47.488 10.2303 47.396 10.463C47.3075 10.6957 47.1778 10.8868 47.0075 11.0362C46.837 11.1853 46.629 11.2826 46.3836 11.3278V11.3799C46.6325 11.432 46.8574 11.5225 47.0586 11.6508C47.2596 11.776 47.42 11.96 47.5392 12.2031C47.6621 12.4429 47.7234 12.7623 47.7234 13.162C47.7234 13.6239 47.6125 14.0199 47.391 14.3497C47.1694 14.6798 46.8524 14.9333 46.4397 15.1107C46.0308 15.2842 45.5433 15.3711 44.9773 15.3711H42.18V7.75351ZM43.7654 10.7704H44.6858C45.1461 10.7704 45.4647 10.6972 45.642 10.5514C45.8193 10.402 45.9079 10.1833 45.9079 9.89497C45.9079 9.6032 45.8024 9.39476 45.5909 9.26974C45.383 9.1412 45.0523 9.07695 44.5987 9.07695H43.7654V10.7704ZM43.7654 12.0522V14.0372H44.7982C45.2755 14.0372 45.6079 13.9435 45.7954 13.756C45.9829 13.5682 46.0767 13.3164 46.0767 13.0004C46.0767 12.8129 46.0358 12.6477 45.954 12.5054C45.8722 12.3629 45.734 12.2519 45.5398 12.1719C45.3488 12.0921 45.0847 12.0522 44.7471 12.0522H43.7654ZM56.0026 11.5519C56.0026 12.1388 55.931 12.6739 55.7879 13.1566C55.6445 13.636 55.4263 14.0494 55.1333 14.3967C54.8433 14.744 54.4753 15.0116 54.0287 15.1991C53.5821 15.3833 53.0537 15.4752 52.4433 15.4752C51.8331 15.4752 51.3047 15.3833 50.8581 15.1991C50.4115 15.0116 50.0417 14.744 49.7485 14.3967C49.4587 14.0494 49.2423 13.6343 49.0989 13.1515C48.9558 12.6686 48.8842 12.132 48.8842 11.5415C48.8842 10.7529 49.0104 10.0669 49.2627 9.48336C49.5183 8.89631 49.9103 8.44127 50.4387 8.11823C50.9673 7.79518 51.6388 7.63367 52.4535 7.63367C53.2649 7.63367 53.9314 7.79518 54.4531 8.11823C54.9782 8.44127 55.3667 8.89631 55.6191 9.48336C55.8747 10.0705 56.0026 10.76 56.0026 11.5519ZM50.5462 11.5519C50.5462 12.0834 50.611 12.5418 50.7404 12.9275C50.8736 13.3096 51.0798 13.6048 51.3593 13.8131C51.6388 14.0182 52.0002 14.1206 52.4433 14.1206C52.8934 14.1206 53.2582 14.0182 53.5377 13.8131C53.8172 13.6048 54.0202 13.3096 54.1464 12.9275C54.2758 12.5418 54.3406 12.0834 54.3406 11.5519C54.3406 10.7529 54.194 10.1243 53.9008 9.6657C53.6075 9.20721 53.1253 8.97794 52.4535 8.97794C52.0069 8.97794 51.6423 9.08216 51.3593 9.29057C51.0798 9.4955 50.8736 9.79076 50.7404 10.1764C50.611 10.5585 50.5462 11.0169 50.5462 11.5519ZM59.7305 7.75351C60.409 7.75351 60.9681 7.83687 61.4079 8.00362C61.851 8.17033 62.1799 8.42217 62.3949 8.75911C62.6096 9.09606 62.7171 9.52157 62.7171 10.0357C62.7171 10.383 62.6522 10.6868 62.5226 10.9475C62.3931 11.2079 62.2226 11.4285 62.0114 11.6091C61.7999 11.7897 61.5715 11.9373 61.3261 12.0522L63.525 15.3711H61.7658L59.9811 12.448H59.1373V15.3711H57.5521V7.75351H59.7305ZM59.618 9.07695H59.1373V11.135H59.6487C60.1736 11.135 60.5486 11.0466 60.7738 10.8692C61.0022 10.6886 61.1164 10.4246 61.1164 10.0773C61.1164 9.71608 60.9938 9.45904 60.7481 9.3062C60.506 9.15335 60.1295 9.07695 59.618 9.07695Z" fill="white"/>
</svg>
