<svg width="102" height="18" viewBox="0 0 102 18" fill="none" xmlns="http://www.w3.org/2000/svg">
<path d="M41.9628 6.4019C41.6284 6.4019 41.3316 6.46859 41.0723 6.60196C40.8168 6.73152 40.6007 6.92014 40.4241 7.16783C40.2513 7.41552 40.1198 7.71465 40.0296 8.06522C39.9394 8.4158 39.8943 8.8102 39.8943 9.24841C39.8943 9.83906 39.9657 10.344 40.1085 10.7631C40.2551 11.1785 40.4805 11.4967 40.7849 11.7177C41.0892 11.9349 41.4819 12.0435 41.9628 12.0435C42.2972 12.0435 42.6317 12.0054 42.9661 11.9292C43.3043 11.853 43.6706 11.7444 44.0651 11.6034V13.0895C43.7007 13.2419 43.3418 13.3505 42.9886 13.4153C42.6354 13.4839 42.239 13.5182 41.7994 13.5182C40.9502 13.5182 40.2513 13.341 39.7027 12.9866C39.1579 12.6284 38.7539 12.1292 38.4909 11.489C38.2279 10.8451 38.0964 10.0944 38.0964 9.23698C38.0964 8.60442 38.1809 8.02521 38.35 7.49935C38.5191 6.97349 38.7671 6.51813 39.094 6.13326C39.4209 5.74839 39.8248 5.45116 40.3058 5.24158C40.7867 5.03199 41.3391 4.9272 41.9628 4.9272C42.3724 4.9272 42.782 4.98055 43.1915 5.08725C43.6049 5.19013 43.9994 5.33303 44.3751 5.51594L43.8115 6.95634C43.5034 6.80773 43.1934 6.67817 42.8815 6.56766C42.5697 6.45716 42.2634 6.4019 41.9628 6.4019Z" fill="white"/>
<path d="M53.3029 9.21412C53.3029 9.85811 53.224 10.4449 53.0662 10.9746C52.9084 11.5005 52.6679 11.9539 52.3448 12.335C52.0254 12.7161 51.6196 13.0095 51.1273 13.2152C50.6351 13.4172 50.0527 13.5182 49.3801 13.5182C48.7075 13.5182 48.1251 13.4172 47.6329 13.2152C47.1406 13.0095 46.733 12.7161 46.4098 12.335C46.0904 11.9539 45.8518 11.4986 45.694 10.9689C45.5362 10.4392 45.4573 9.85049 45.4573 9.20269C45.4573 8.33768 45.5963 7.58509 45.8744 6.94491C46.1562 6.30092 46.5883 5.80173 47.1707 5.44735C47.7531 5.09296 48.4933 4.91577 49.3914 4.91577C50.2857 4.91577 51.0203 5.09296 51.5952 5.44735C52.1738 5.80173 52.6022 6.30092 52.8802 6.94491C53.162 7.5889 53.3029 8.3453 53.3029 9.21412ZM47.2891 9.21412C47.2891 9.79714 47.3605 10.3001 47.5032 10.7231C47.6498 11.1423 47.8771 11.4662 48.1852 11.6948C48.4933 11.9196 48.8916 12.0321 49.3801 12.0321C49.8761 12.0321 50.2782 11.9196 50.5863 11.6948C50.8944 11.4662 51.118 11.1423 51.257 10.7231C51.3998 10.3001 51.4712 9.79714 51.4712 9.21412C51.4712 8.33768 51.3096 7.64797 50.9864 7.14497C50.6633 6.64197 50.1316 6.39047 49.3914 6.39047C48.8992 6.39047 48.4971 6.50479 48.1852 6.73342C47.8771 6.95825 47.6498 7.28215 47.5032 7.70512C47.3605 8.12429 47.2891 8.62729 47.2891 9.21412Z" fill="white"/>
<path d="M58.4995 13.4039L56.5156 6.84774H56.4649C56.4724 7.00398 56.4836 7.24023 56.4987 7.55651C56.5175 7.86898 56.5344 8.20241 56.5494 8.55679C56.5644 8.91118 56.5719 9.23127 56.5719 9.51706V13.4039H55.0107V5.04724H57.3892L59.3393 11.4376H59.3732L61.4417 5.04724H63.8201V13.4039H62.1913V9.44847C62.1913 9.18554 62.195 8.8826 62.2025 8.53964C62.2138 8.19669 62.227 7.87088 62.242 7.56223C62.257 7.24976 62.2683 7.01541 62.2758 6.85917H62.2251L60.1002 13.4039H58.4995Z" fill="white"/>
<path d="M69.3887 13.4039L67.4048 6.84774H67.3541C67.3616 7.00398 67.3728 7.24023 67.3879 7.55651C67.4067 7.86898 67.4236 8.20241 67.4386 8.55679C67.4536 8.91118 67.4611 9.23127 67.4611 9.51706V13.4039H65.8999V5.04724H68.2784L70.2285 11.4376H70.2624L72.3309 5.04724H74.7093V13.4039H73.0805V9.44847C73.0805 9.18554 73.0842 8.8826 73.0917 8.53964C73.103 8.19669 73.1162 7.87088 73.1312 7.56223C73.1462 7.24976 73.1575 7.01541 73.165 6.85917H73.1143L70.9894 13.4039H69.3887Z" fill="white"/>
<path d="M84.2684 9.21412C84.2684 9.85811 84.1895 10.4449 84.0317 10.9746C83.8739 11.5005 83.6334 11.9539 83.3102 12.335C82.9908 12.7161 82.585 13.0095 82.0928 13.2152C81.6006 13.4172 81.0182 13.5182 80.3456 13.5182C79.673 13.5182 79.0906 13.4172 78.5983 13.2152C78.1061 13.0095 77.6984 12.7161 77.3753 12.335C77.0559 11.9539 76.8173 11.4986 76.6595 10.9689C76.5017 10.4392 76.4228 9.85049 76.4228 9.20269C76.4228 8.33768 76.5618 7.58509 76.8398 6.94491C77.1217 6.30092 77.5538 5.80173 78.1362 5.44735C78.7186 5.09296 79.4588 4.91577 80.3568 4.91577C81.2511 4.91577 81.9857 5.09296 82.5606 5.44735C83.1393 5.80173 83.5676 6.30092 83.8457 6.94491C84.1275 7.5889 84.2684 8.3453 84.2684 9.21412ZM78.2545 9.21412C78.2545 9.79714 78.3259 10.3001 78.4687 10.7231C78.6153 11.1423 78.8426 11.4662 79.1507 11.6948C79.4588 11.9196 79.8571 12.0321 80.3456 12.0321C80.8416 12.0321 81.2436 11.9196 81.5517 11.6948C81.8598 11.4662 82.0834 11.1423 82.2224 10.7231C82.3652 10.3001 82.4366 9.79714 82.4366 9.21412C82.4366 8.33768 82.2751 7.64797 81.9519 7.14497C81.6288 6.64197 81.0971 6.39047 80.3568 6.39047C79.8646 6.39047 79.4626 6.50479 79.1507 6.73342C78.8426 6.95825 78.6153 7.28215 78.4687 7.70512C78.3259 8.12429 78.2545 8.62729 78.2545 9.21412Z" fill="white"/>
<path d="M92.8129 9.14553C92.8129 10.0867 92.6344 10.8736 92.2775 11.5062C91.9243 12.1349 91.4114 12.6094 90.7388 12.9294C90.0662 13.2457 89.2565 13.4039 88.3096 13.4039H85.9762V5.04724H88.5632C89.4274 5.04724 90.177 5.20347 90.8121 5.51594C91.4471 5.8246 91.9393 6.28377 92.2888 6.89347C92.6382 7.49935 92.8129 8.25004 92.8129 9.14553ZM90.9981 9.19126C90.9981 8.57394 90.9079 8.06713 90.7275 7.67083C90.5509 7.27072 90.2879 6.9754 89.9384 6.78487C89.5928 6.59434 89.1644 6.49907 88.6534 6.49907H87.7234V11.9406H88.473C89.326 11.9406 89.9591 11.7101 90.3724 11.249C90.7895 10.7879 90.9981 10.102 90.9981 9.19126Z" fill="white"/>
<path d="M102 9.21412C102 9.85811 101.921 10.4449 101.763 10.9746C101.605 11.5005 101.365 11.9539 101.042 12.335C100.722 12.7161 100.317 13.0095 99.8244 13.2152C99.3322 13.4172 98.7498 13.5182 98.0772 13.5182C97.4046 13.5182 96.8222 13.4172 96.3299 13.2152C95.8377 13.0095 95.43 12.7161 95.1069 12.335C94.7875 11.9539 94.5489 11.4986 94.3911 10.9689C94.2333 10.4392 94.1544 9.85049 94.1544 9.20269C94.1544 8.33768 94.2934 7.58509 94.5714 6.94491C94.8532 6.30092 95.2854 5.80173 95.8678 5.44735C96.4502 5.09296 97.1904 4.91577 98.0884 4.91577C98.9827 4.91577 99.7173 5.09296 100.292 5.44735C100.871 5.80173 101.299 6.30092 101.577 6.94491C101.859 7.5889 102 8.3453 102 9.21412ZM95.9861 9.21412C95.9861 9.79714 96.0575 10.3001 96.2003 10.7231C96.3468 11.1423 96.5742 11.4662 96.8823 11.6948C97.1904 11.9196 97.5887 12.0321 98.0772 12.0321C98.5732 12.0321 98.9752 11.9196 99.2833 11.6948C99.5914 11.4662 99.815 11.1423 99.954 10.7231C100.097 10.3001 100.168 9.79714 100.168 9.21412C100.168 8.33768 100.007 7.64797 99.6835 7.14497C99.3603 6.64197 98.8287 6.39047 98.0884 6.39047C97.5962 6.39047 97.1942 6.50479 96.8823 6.73342C96.5742 6.95825 96.3468 7.28215 96.2003 7.70512C96.0575 8.12429 95.9861 8.62729 95.9861 9.21412Z" fill="white"/>
<path d="M5.21003 17.0127C4.62289 16.5634 5.0643 16.2616 5.30616 15.9783C6.93238 14.0723 8.59015 12.1901 11.2444 11.535C11.9817 11.353 11.9218 11.0847 11.4622 10.6164C10.2336 9.36603 8.4474 9.3037 6.75031 10.5006C4.46228 12.1139 2.88354 14.3001 1.37051 16.5432C1.14457 16.8781 0.966061 17.5098 0.304685 16.9898C0.0669899 16.8029 -0.131644 16.6613 0.109597 16.3033C1.98141 13.5286 3.84927 10.7519 6.97769 9.07073C8.96605 8.0023 10.7445 8.27752 12.3045 9.8694C13.853 11.4482 15.3886 13.0381 16.9277 14.6251C18.1547 15.8898 19.2585 16.0558 20.7723 15.0945C23.2994 13.4888 24.9835 11.1444 26.6633 8.80906C28.5564 6.17692 30.171 3.38536 31.7883 0.596121C32.0123 0.209915 32.1503 -0.245689 32.8287 0.15644C33.3452 0.462672 33.1912 0.719469 33.0074 0.965987L32.1032 2.47391C29.969 6.13526 27.7572 9.7517 24.9218 12.9822C23.8592 14.1926 22.6175 15.2334 21.2729 16.1482C20.6012 16.6051 19.8286 16.8941 18.9933 16.8088C17.8504 16.9235 17.036 16.3862 16.3259 15.6655C15.6894 15.0194 15.1126 14.3191 14.4601 13.6884C13.2639 12.532 11.9113 12.3507 10.3964 13.0683C8.64559 13.8975 7.40555 15.2544 6.23481 16.6885C6.05311 16.9109 5.91701 17.2048 5.64696 17.2048C5.53073 17.2045 5.38986 17.1503 5.21003 17.0127ZM16.6487 12.7003C19.4289 11.5143 21.1137 9.3523 22.6986 7.11979C23.7794 5.59719 24.7516 4.00359 25.7496 2.4287C25.9617 2.09359 26.1161 1.79621 26.5848 2.08076C26.9758 2.31771 27.1381 2.5401 26.8468 3.01258C24.9452 6.09676 23.0699 9.19722 20.3445 11.7152C19.7801 12.2278 19.1675 12.6896 18.5146 13.0951C18.0728 13.3743 17.8153 13.5258 17.599 13.5258C17.3175 13.5258 17.1058 13.2689 16.6487 12.7003ZM13.9238 9.83642C16.3043 8.84417 17.7251 6.95984 19.0923 5.02299C19.3829 4.61195 19.6835 4.20756 19.9648 3.79088C20.2041 3.43729 20.486 3.57698 20.7243 3.74649C20.9352 3.89664 21.2584 4.01797 20.9811 4.41053C19.4924 6.51898 18.0744 8.68737 15.8352 10.1758C15.5054 10.3947 15.1491 10.6095 14.8098 10.6095C14.4855 10.6093 14.177 10.4131 13.9238 9.83654V9.83642Z" fill="url(#paint0_linear_2356_11852)"/>
<defs>
<linearGradient id="paint0_linear_2356_11852" x1="16.5904" y1="0" x2="16.5904" y2="17.2048" gradientUnits="userSpaceOnUse">
<stop stop-color="#E2F7E5"/>
<stop offset="1" stop-color="#52B788"/>
</linearGradient>
</defs>
</svg>
