<svg width="73" height="24" viewBox="0 0 73 24" fill="none" xmlns="http://www.w3.org/2000/svg">
<path d="M12.2405 0C10.5637 0.00215572 8.9074 0.368474 7.38608 1.07363C5.86475 1.77878 4.51473 2.80595 3.42937 4.0841C2.48728 5.03217 1.78535 6.19162 1.38208 7.46589C1.26713 7.86368 1.20059 8.27389 1.18388 8.68762L4.63806 10.026C4.82169 9.58275 4.96543 9.22393 5.11734 8.86715C5.56017 7.82331 6.22216 6.88683 7.05849 6.12115C7.80667 5.43316 8.68481 4.90162 9.64131 4.55778C10.5978 4.21393 11.6134 4.0647 12.6283 4.11886C13.6433 4.17301 14.6372 4.42946 15.5517 4.87314C16.4662 5.31682 17.2828 5.93877 17.9535 6.70247C18.1766 6.97656 18.3648 7.27723 18.5139 7.5976C18.6662 7.50614 18.8127 7.40509 18.9522 7.29505V7.29224L19.7466 6.84468L19.1328 11.7953L14.8738 9.9853L14.5824 9.86255L15.2689 9.44464L14.9668 9.13263C14.2433 8.40923 13.2627 8.00186 12.2395 7.99965C11.1895 8.01644 10.1882 8.44532 9.45165 9.19377C8.71507 9.94223 8.30225 10.9503 8.30225 12.0004C8.30225 13.0505 8.71507 14.0585 9.45165 14.807C10.1882 15.5554 11.1895 15.9843 12.2395 16.0011C12.6065 16.0016 12.9715 15.9484 13.3231 15.8433C14.0686 15.6238 14.7305 15.1844 15.2223 14.5827C15.3682 14.4638 15.555 14.4071 15.7423 14.4249C16.8366 14.7512 17.8885 15.2226 18.9576 15.642C17.9218 18.2187 15.1408 19.9172 12.1579 19.9358C11.9593 19.9372 11.7596 19.9309 11.5589 19.9169C8.52931 19.7072 5.70223 17.4154 4.95467 14.5206L5.94316 13.8653L0.944239 11.8014C0.832476 12.405 0.724541 12.9906 0.61687 13.5722C0.412268 14.672 0.211251 15.754 0 16.8937L1.23171 16.4287C2.57517 19.4323 4.54624 21.4235 6.73727 22.602C6.82576 22.6501 6.91476 22.698 7.00555 22.7427C7.02448 22.7534 7.04596 22.7621 7.06489 22.7729C7.17691 22.8291 7.28867 22.8852 7.40273 22.9373C7.52728 22.9936 7.65414 23.0496 7.78099 23.1018L7.97101 23.1785C9.32811 23.7234 10.7773 24.0023 12.2398 24C18.7154 24 23.9647 18.6271 23.9647 11.9993C23.9647 5.37154 18.7169 0 12.2405 0Z" fill="url(#paint0_linear_2356_11865)"/>
<path d="M38.8683 14.6854C38.8683 10.9064 33.3773 12.1046 33.3773 9.95401C33.3773 9.07832 34.0062 8.66347 34.8497 8.69442C35.7704 8.70976 36.3377 9.26271 36.3842 9.96935H38.7461C38.6082 8.03383 37.1049 6.91235 34.9116 6.91235C32.7029 6.91235 31.1385 8.07986 31.1385 10.0154C31.1232 13.9028 36.6448 12.5038 36.6448 14.8235C36.6448 15.5908 36.0459 16.1278 35.0336 16.1278C34.0362 16.1278 33.4692 15.5596 33.4078 14.6995H31.106C31.1367 16.7271 32.8546 17.8943 35.0786 17.8943C37.5192 17.8956 38.8683 16.3749 38.8683 14.6854ZM42.2734 17.7882H44.6048L46.1539 11.8435L47.703 17.7882H50.0191L52.5035 9.27831H50.4485L48.9462 15.7452L47.3503 9.27831H45.0803L43.4545 15.7606L41.9512 9.27831H39.7732L42.2734 17.7882ZM53.1173 13.5026C53.1173 16.1598 54.8364 17.9271 56.9835 17.9271C57.5311 17.945 58.0748 17.8283 58.5669 17.5873C59.059 17.3462 59.4844 16.9882 59.806 16.5445V17.7887H61.9686V9.27831H59.806V10.4918C59.4821 10.0567 59.0577 9.7065 58.569 9.47107C58.0804 9.23565 57.542 9.12203 56.9998 9.13994C54.8352 9.13994 53.116 10.845 53.116 13.5026H53.1173ZM59.8042 13.5333C59.8042 15.146 58.73 16.0371 57.5495 16.0371C56.3986 16.0371 55.3101 15.1164 55.3101 13.5026C55.3101 11.8888 56.3988 11.0305 57.5495 11.0305C58.7323 11.0305 59.806 11.9205 59.806 13.5333H59.8042ZM66.2174 10.5072V9.27959H64.0691V21.8457H66.2174V16.5746C66.5473 17.003 66.9728 17.3482 67.4599 17.5827C67.947 17.8172 68.4822 17.9345 69.0227 17.9253C71.2004 17.9253 72.9032 16.1585 72.9032 13.5008C72.9032 10.843 71.2017 9.13994 69.0227 9.13994C68.4796 9.1264 67.9412 9.24353 67.4528 9.48147C66.9643 9.7194 66.5402 10.0712 66.2161 10.5072H66.2174ZM70.7112 13.5026C70.7112 15.1153 69.6222 16.0371 68.4565 16.0371C67.3056 16.0371 66.2174 15.146 66.2174 13.5333C66.2174 11.9205 67.3051 11.0294 68.4557 11.0294C69.6209 11.0294 70.7099 11.8895 70.7099 13.5026H70.7112Z" fill="white"/>
<defs>
<linearGradient id="paint0_linear_2356_11865" x1="2.51629" y1="17.904" x2="22.5906" y2="5.73822" gradientUnits="userSpaceOnUse">
<stop stop-color="#E72134"/>
<stop offset="0.498" stop-color="#EB3E16"/>
<stop offset="1" stop-color="#E40049"/>
</linearGradient>
</defs>
</svg>
