<svg width="15" height="15" viewBox="0 0 15 15" fill="none" xmlns="http://www.w3.org/2000/svg">
<path d="M8.86842 6.21941C7.48633 3.37848 4.83732 0 4.83732 0C4.83732 0.00013389 0 6.14263 0 8.81083C0 11.479 2.16915 13.6482 4.83732 13.6482C5.54753 13.6482 6.21941 13.4946 6.81448 13.2258C6.62247 12.6884 6.48817 12.1125 6.48817 11.5174C6.50732 10.1353 7.71669 7.94703 8.86847 6.21941H8.86842Z" fill="white"/>
<path d="M11.325 5.08716C9.80865 7.12187 7.86981 10.174 7.86981 11.4985C7.86981 13.3989 9.42463 14.9538 11.325 14.9538C13.2255 14.9538 14.7803 13.3989 14.7803 11.4985C14.7803 10.174 12.8414 7.1219 11.325 5.08716ZM11.8241 13.802C11.8241 13.802 12.9759 12.8998 13.5709 10.5579C13.5709 10.558 14.6074 13.399 11.8241 13.802Z" fill="white"/>
</svg>
