<svg width="16" height="15" viewBox="0 0 16 15" fill="none" xmlns="http://www.w3.org/2000/svg">
<path d="M3.90825 0C4.35254 0 4.79248 0.0867865 5.20295 0.255404C5.61342 0.424022 5.98639 0.671169 6.30055 0.982734C6.61471 1.2943 6.86392 1.66418 7.03394 2.07126C7.20396 2.47834 7.29147 2.91464 7.29147 3.35526V6.71053H3.90825C3.01096 6.71053 2.15043 6.35703 1.51595 5.72779C0.881472 5.09856 0.525026 4.24513 0.525026 3.35526C0.525026 2.46539 0.881472 1.61197 1.51595 0.982734C2.15043 0.3535 3.01096 0 3.90825 0ZM3.90825 8.28947H7.29147V11.6447C7.29147 12.3083 7.09305 12.957 6.7213 13.5088C6.34954 14.0606 5.82116 14.4906 5.20295 14.7446C4.58475 14.9985 3.9045 15.065 3.24821 14.9355C2.59193 14.8061 1.9891 14.4865 1.51595 14.0173C1.0428 13.548 0.720576 12.9502 0.590034 12.2993C0.459491 11.6485 0.52649 10.9738 0.782558 10.3607C1.03863 9.74764 1.47226 9.22362 2.02863 8.85494C2.585 8.48626 3.23911 8.28947 3.90825 8.28947ZM12.2668 0C13.1641 0 14.0246 0.3535 14.6591 0.982734C15.2936 1.61197 15.65 2.46539 15.65 3.35526C15.65 4.24513 15.2936 5.09856 14.6591 5.72779C14.0246 6.35703 13.1641 6.71053 12.2668 6.71053H8.88358V3.35526C8.88358 2.46539 9.24002 1.61197 9.8745 0.982734C10.509 0.3535 11.3695 0 12.2668 0ZM8.88358 8.28947H12.2668C12.9359 8.28947 13.59 8.48626 14.1464 8.85494C14.7028 9.22362 15.1364 9.74764 15.3925 10.3607C15.6486 10.9738 15.7156 11.6485 15.585 12.2993C15.4545 12.9502 15.1323 13.548 14.6591 14.0173C14.1859 14.4865 13.5831 14.8061 12.9268 14.9355C12.2706 15.065 11.5903 14.9985 10.9721 14.7446C10.3539 14.4906 9.82551 14.0606 9.45375 13.5088C9.082 12.957 8.88358 12.3083 8.88358 11.6447V8.28947Z" fill="white"/>
</svg>
