<svg width="151" height="54" viewBox="0 0 151 54" fill="none" xmlns="http://www.w3.org/2000/svg">
<path d="M5.85111 48.6153C4.05692 47.2654 2.59929 45.5141 1.59331 43.4997C0.587337 41.4859 0.0606367 39.2633 0.054828 37.0091C-0.0595685 30.6754 0.0394171 24.3375 0.0465298 18.0008C0.0500862 15.0112 1.606 12.9317 3.91763 11.3337C8.83727 7.92882 17.46 7.96819 22.3512 11.3987C24.942 13.2145 26.3278 15.6649 26.2418 18.9189C26.195 20.7036 26.2335 22.4908 26.2335 24.3524H14.0755V16.2883H9.18698V17.7342C9.18698 23.3068 9.18698 28.8799 9.18698 34.4531C9.18698 41.6499 12.5836 46.5025 19.3164 48.8694C23.8259 50.4597 28.7046 50.656 33.3255 49.4331C33.712 49.3353 34.0967 49.2291 34.4849 49.1415C34.5578 49.1253 34.6461 49.1802 34.8595 49.2387C32.9711 51.0264 30.6648 52.3041 28.1546 52.9537C25.7659 53.6326 23.2978 53.9845 20.816 54C15.4791 54 10.4729 52.2367 5.85111 48.6153ZM17.8755 42.5512C16.6509 41.7561 15.6545 40.652 14.9859 39.3486C14.3173 38.0452 14.0002 36.5886 14.0648 35.1235C14.1081 33.334 14.0731 31.5445 14.0731 29.6595H26.2075V37.7052H31.1182V36.3046C31.1182 30.6414 31.0133 24.9763 31.1455 19.3167C31.3043 12.6108 28.0259 8.27241 22.248 5.66687C17.2928 3.43056 12.1189 3.28979 6.88365 4.59316C6.46222 4.69814 6.0396 4.79477 5.22757 4.98804C6.94393 3.27344 9.05261 2.00956 11.3685 1.30759C19.7272 -1.30272 27.4723 -0.0327607 34.4304 5.36861C36.2305 6.71087 37.6945 8.45799 38.7051 10.4705C39.7157 12.4832 40.245 14.7056 40.251 16.9605C40.3659 23.3396 40.2634 29.7222 40.251 36.1036C40.2456 39.0474 38.6773 41.0761 36.4196 42.6538C33.9799 44.3587 30.6185 45.2063 27.2518 45.2069C23.8045 45.2075 20.3513 44.3205 17.8755 42.5512Z" fill="url(#paint0_linear_2374_11278)"/>
<path d="M62.1428 36.0887H58.3867V28.3699H51.3486V36.0887H47.5801V18.204H51.3486V25.2138H58.3867V18.204H62.1428V36.0887ZM77.5193 36.0887L76.2308 31.8314H69.7522L68.4637 36.0887H64.4035L70.6757 18.1306H75.283L81.5795 36.0887H77.5193ZM75.3316 28.6509L74.043 24.492C73.9618 24.2146 73.8527 23.8597 73.7146 23.4275C73.5848 22.9871 73.4515 22.5426 73.3134 22.0941C73.1841 21.6374 73.0786 21.2419 72.9974 20.9075C72.9168 21.2419 72.803 21.6578 72.6572 22.1552C72.5197 22.6446 72.3857 23.1094 72.2559 23.5498C72.1267 23.9903 72.0331 24.3041 71.9768 24.492L70.7 28.6509H75.3316ZM89.0064 18.204C90.6192 18.204 91.9481 18.3997 92.9937 18.7912C94.047 19.1826 94.8288 19.7739 95.3397 20.565C95.85 21.356 96.1055 22.3551 96.1055 23.562C96.1055 24.3775 95.9514 25.0909 95.6432 25.7029C95.3356 26.3143 94.9301 26.8321 94.4281 27.2562C93.9255 27.6803 93.3825 28.0269 92.7987 28.2965L98.0259 36.0887H93.8443L89.6021 29.2259H87.5963V36.0887H83.8283V18.204H89.0064ZM88.7391 21.3112H87.5963V26.1431H88.812C90.0597 26.1431 90.9512 25.9356 91.4864 25.5192C92.0293 25.0951 92.3008 24.4753 92.3008 23.6599C92.3008 22.8118 92.0086 22.2083 91.4253 21.8494C90.8498 21.4906 89.9548 21.3112 88.7391 21.3112ZM100.262 18.204H105.793C108.16 18.204 109.95 18.5383 111.166 19.2071C112.382 19.8758 112.989 21.0502 112.989 22.7302C112.989 23.4071 112.88 24.019 112.661 24.5654C112.451 25.1118 112.142 25.5604 111.738 25.9111C111.332 26.2612 110.838 26.4897 110.255 26.5959V26.7182C110.846 26.8405 111.381 27.0528 111.859 27.354C112.337 27.6481 112.718 28.08 113.001 28.6509C113.293 29.214 113.439 29.9638 113.439 30.9021C113.439 31.9865 113.175 32.9165 112.649 33.6907C112.122 34.4656 111.369 35.0609 110.388 35.4773C109.416 35.8847 108.257 36.0887 106.912 36.0887H100.262V18.204ZM104.031 25.2871H106.219C107.313 25.2871 108.07 25.1154 108.492 24.773C108.913 24.4222 109.124 23.9086 109.124 23.2318C109.124 22.5467 108.873 22.0574 108.37 21.7638C107.876 21.462 107.09 21.3112 106.012 21.3112H104.031V25.2871ZM104.031 28.2965V32.957H106.486C107.62 32.957 108.411 32.7369 108.856 32.2967C109.302 31.8559 109.525 31.2647 109.525 30.5227C109.525 30.0825 109.428 29.6947 109.233 29.3607C109.039 29.0261 108.71 28.7654 108.249 28.5775C107.795 28.3902 107.167 28.2965 106.364 28.2965H104.031ZM133.119 27.122C133.119 28.4999 132.949 29.7562 132.609 30.8895C132.268 32.0152 131.749 32.9857 131.053 33.8011C130.363 34.6165 129.489 35.2446 128.427 35.6849C127.365 36.1173 126.109 36.3333 124.658 36.3333C123.208 36.3333 121.952 36.1173 120.89 35.6849C119.829 35.2446 118.95 34.6165 118.253 33.8011C117.564 32.9857 117.05 32.011 116.709 30.8776C116.368 29.7437 116.198 28.4838 116.198 27.0975C116.198 25.246 116.498 23.6354 117.098 22.2654C117.706 20.8871 118.637 19.8187 119.893 19.0603C121.15 18.3018 122.746 17.9226 124.683 17.9226C126.611 17.9226 128.196 18.3018 129.436 19.0603C130.684 19.8187 131.608 20.8871 132.207 22.2654C132.815 23.6438 133.119 25.2627 133.119 27.122ZM120.149 27.122C120.149 28.3699 120.303 29.446 120.611 30.3515C120.927 31.2486 121.417 31.9418 122.082 32.4309C122.746 32.9123 123.605 33.1527 124.658 33.1527C125.728 33.1527 126.595 32.9123 127.26 32.4309C127.924 31.9418 128.407 31.2486 128.707 30.3515C129.014 29.446 129.168 28.3699 129.168 27.122C129.168 25.246 128.82 23.7702 128.123 22.6935C127.426 21.617 126.279 21.0787 124.683 21.0787C123.621 21.0787 122.755 21.3234 122.082 21.8127C121.417 22.2939 120.927 22.9871 120.611 23.8925C120.303 24.7897 120.149 25.8658 120.149 27.122ZM141.98 18.204C143.593 18.204 144.922 18.3997 145.968 18.7912C147.021 19.1826 147.803 19.7739 148.314 20.565C148.824 21.356 149.079 22.3551 149.079 23.562C149.079 24.3775 148.925 25.0909 148.617 25.7029C148.309 26.3143 147.904 26.8321 147.402 27.2562C146.899 27.6803 146.356 28.0269 145.773 28.2965L151 36.0887H146.818L142.576 29.2259H140.57V36.0887H136.802V18.204H141.98ZM141.713 21.3112H140.57V26.1431H141.786C143.034 26.1431 143.925 25.9356 144.46 25.5192C145.003 25.0951 145.275 24.4753 145.275 23.6599C145.275 22.8118 144.983 22.2083 144.399 21.8494C143.824 21.4906 142.929 21.3112 141.713 21.3112Z" fill="white"/>
<defs>
<linearGradient id="paint0_linear_2374_11278" x1="-11" y1="12" x2="58" y2="67" gradientUnits="userSpaceOnUse">
<stop stop-color="#893AF5"/>
<stop offset="1" stop-color="#5170F8"/>
</linearGradient>
</defs>
</svg>
